<svg xmlns="http://www.w3.org/2000/svg" xmlns:xlink="http://www.w3.org/1999/xlink" xml:space="preserve" version="1.1" style="shape-rendering:geometricPrecision;text-rendering:geometricPrecision;image-rendering:optimizeQuality;" viewBox="0 0 60000 75000" x="0px" y="0px" fill-rule="evenodd" clip-rule="evenodd"><defs><style type="text/css">
   
    .fil0 {fill:black;fill-rule:nonzero}
   
  </style></defs><g><path class="fil0" d="M35992 18100c112,-21 230,-30 349,-26 267,10 542,89 776,262 235,174 422,437 507,812 55,242 66,532 16,875 182,22 369,75 547,184 349,215 621,623 664,1388 2,43 -2,84 -13,123 -181,640 -400,1220 -648,1781 -172,389 -358,771 -554,1159 224,133 431,312 579,564 226,386 298,914 47,1654 -381,1932 -1380,3789 -2379,5645 -491,913 -983,1826 -1395,2740 -2,5 -5,11 -8,16 -294,683 -714,1261 -1140,1847 -307,423 -618,851 -873,1309 -706,1850 -1918,3400 -3323,4691 -1397,1283 -2983,2310 -4448,3119l0 0c-691,403 -1333,1438 -1991,2499 -533,859 -1076,1735 -1700,2371 8,29 15,57 23,86 261,618 481,1245 613,1879 159,764 189,1534 11,2302 -16,71 -52,133 -100,182l-1922 2178c-138,156 -377,171 -533,33 -156,-138 -171,-377 -33,-533l1871 -2119c129,-623 97,-1256 -34,-1888 -121,-584 -328,-1169 -573,-1748 -5,-10 -9,-20 -13,-31 -38,-88 -76,-177 -116,-265l0 0c-33,-73 -41,-155 -25,-232 -665,-2279 -1735,-4439 -3021,-6173 -1277,-1723 -2759,-3018 -4255,-3579l-711 408 -5413 3480c-176,113 -410,62 -522,-114 -113,-176 -62,-410 114,-522l2237 -1438c-17,-21 -31,-43 -44,-68 -822,-1620 -906,-2996 -983,-4267 -55,-909 -107,-1761 -447,-2580l-3075 162c-208,11 -386,-150 -397,-358 -11,-208 150,-386 358,-397l3322 -175c151,-12 301,68 371,213 108,222 195,443 267,664 204,-29 400,-53 595,-77 843,-104 1686,-208 2494,-564 118,-147 224,-292 331,-437 422,-573 847,-1149 1585,-1557 318,-588 590,-1177 846,-1761 94,-228 194,-457 296,-687 2,-4 4,-8 6,-12l21 -49c875,-2047 1699,-3975 3752,-5513 263,-197 519,-377 784,-562 979,-687 2089,-1466 2590,-2347 21,-37 48,-70 82,-100 326,-281 665,-556 1004,-830 640,-518 1279,-1035 1795,-1573 16,-17 39,-41 61,-64 253,-267 428,-452 868,-504 314,-37 563,19 754,125 77,42 144,93 202,148 186,-170 415,-275 718,-250 409,34 752,169 1007,433 109,-81 243,-229 375,-375 254,-280 502,-554 798,-612 535,-242 1072,-504 1591,-811 528,-312 1040,-671 1517,-1104 5,-4 10,-9 15,-13 202,-169 431,-246 654,-243 138,2 269,33 388,91 118,57 224,141 313,247 73,87 133,189 177,305 100,-80 204,-157 314,-233 28,-19 57,-34 87,-45 293,-120 668,-135 1011,-41 252,69 491,197 677,384 141,142 250,315 312,520zm-13181 -15364c-69,-254 80,-516 335,-586 254,-69 516,80 586,335l1923 7013c69,254 -80,516 -335,586 -254,69 -516,-80 -586,-335l-1923 -7013zm20109 46611c91,138 54,323 -85,414 -138,91 -324,54 -414,-85l-1691 -2558c-91,-138 -54,-323 85,-414 138,-91 324,-54 414,85l1691 2558zm-3214 -3114c-22,164 -173,279 -336,257 -164,-22 -279,-173 -257,-336 54,-395 266,-736 571,-966 298,-225 685,-344 1098,-306 164,14 285,159 272,323 -14,164 -159,285 -323,272 -261,-23 -503,51 -688,189 -181,137 -306,336 -338,567zm-10539 1957c12,-41 33,-80 64,-114 27,-31 56,-60 85,-88 -54,64 -104,132 -148,202zm22252 -8059c138,91 175,276 85,414 -91,138 -276,175 -414,85l-2558 -1691c-138,-91 -175,-276 -85,-414 91,-138 276,-175 414,-85l2558 1691zm-3524 -3308c164,-22 314,93 336,257 22,164 -92,314 -257,336 -231,32 -432,157 -567,338 -139,185 -213,427 -189,688 14,164 -107,308 -272,323 -164,14 -308,-107 -323,-272 -37,-413 83,-801 306,-1098 230,-306 569,-519 966,-571zm3236 -21413c138,-91 323,-54 414,85 91,138 54,323 -85,414l-2558 1691c-138,91 -323,54 -414,-85 -91,-138 -54,-324 85,-414l2558 -1691zm-3114 3214c164,22 279,173 257,336 -22,164 -173,279 -336,257 -395,-54 -736,-266 -966,-571 -225,-298 -344,-685 -306,-1098 14,-164 159,-286 323,-272 164,14 285,159 272,323 -23,261 51,503 189,688 137,181 336,306 567,338zm6614 9091c165,1 298,134 297,300 -1,165 -134,298 -300,297l-3067 -18c-165,-1 -298,-134 -297,-300 1,-165 134,-298 300,-297l3067 18zm-4376 938c8,7 485,-1950 -58,-1273 -164,204 -238,446 -226,676 12,227 108,443 283,597l1 0zm-41348 -12807c-138,-91 -175,-276 -85,-414 91,-138 276,-175 414,-85l2558 1691c138,91 175,276 85,414 -91,138 -276,175 -414,85l-2558 -1691zm3524 3308c-163,22 -314,-92 -336,-257 -22,-164 92,-314 257,-336 231,-32 432,-157 567,-338 139,-185 213,-427 189,-688 -14,-164 107,-308 272,-323 164,-14 308,107 323,272 37,413 -83,801 -306,1098 -230,306 -569,519 -966,571zm5318 -12045c-91,-138 -54,-324 85,-414 138,-91 324,-54 414,85l1691 2558c91,138 54,324 -85,414 -138,91 -324,54 -414,-85l-1691 -2558zm3214 3114c22,-164 173,-279 336,-257 164,22 279,173 257,336 -54,395 -266,736 -571,966 -298,225 -685,344 -1098,306 -164,-14 -285,-159 -272,-323 14,-164 159,-285 323,-272 261,23 503,-51 688,-189 181,-137 306,-336 338,-567zm21507 -3486c91,-138 276,-175 414,-85 138,91 175,276 85,414l-1691 2558c-91,138 -276,175 -414,85 -138,-91 -175,-276 -85,-414l1691 -2558zm-3308 3524c-22,-164 92,-314 257,-336 164,-22 314,92 336,257 32,231 157,432 338,567 185,139 427,213 688,189 164,-14 308,108 323,272 14,164 -107,308 -272,323 -413,37 -799,-83 -1098,-306 -306,-230 -519,-569 -571,-966zm-9095 -6691c-1,-165 132,-300 297,-300 165,-1 299,132 299,297l18 3067c1,165 -132,300 -297,300 -165,1 -300,-132 -300,-297l-18 -3067zm-788 4769c-109,-123 -98,-312 25,-422 123,-109 312,-98 422,25 155,175 370,271 597,283 231,13 473,-61 676,-226 129,-104 317,-83 421,45 104,129 83,317 -45,421 -323,261 -711,377 -1083,357 -381,-21 -747,-185 -1012,-484l0 1zm17390 14886c-138,-91 -175,-276 -85,-414 91,-138 276,-175 414,-85 333,222 546,562 619,937 72,367 9,766 -205,1122 -85,142 -270,187 -411,101 -142,-85 -187,-270 -101,-411 135,-224 175,-473 130,-701 -43,-222 -167,-422 -361,-552l0 2zm2626 418c-255,66 -516,-87 -582,-342 -66,-255 87,-516 342,-582l6690 -1752c255,-66 516,87 582,342 66,255 -87,516 -342,582l-6690 1752zm-6023 -7374c10,165 -115,307 -280,317 -165,10 -307,-115 -317,-280 -15,-233 -126,-442 -296,-589 -175,-152 -412,-243 -674,-238 -165,2 -301,-129 -303,-294 -2,-165 129,-301 294,-303 415,-8 793,139 1074,383 288,251 477,605 502,1004l0 -1zm1035 -1776c-185,188 -488,190 -676,6 -188,-185 -190,-488 -6,-676l4861 -4917c185,-188 488,-190 676,-6 188,185 190,488 6,676l-4861 4917zm-26205 1651c-12,165 -156,288 -320,276 -165,-12 -288,-156 -276,-320 31,-399 224,-750 515,-998 285,-241 665,-382 1080,-369 165,6 294,143 290,308 -6,165 -143,294 -308,290 -261,-9 -499,79 -675,229 -173,146 -286,352 -305,586l0 -2zm23065 24872c-165,-3 -296,-140 -293,-304 3,-165 140,-296 304,-293 235,6 451,-88 616,-246 166,-160 276,-388 294,-647 11,-165 153,-290 318,-279 165,11 290,153 279,318 -29,414 -207,778 -477,1038 -274,265 -643,421 -1042,412l1 0zm7756 5770c183,190 177,493 -13,676 -190,183 -493,177 -676,-13l-5043 -5238c-183,-190 -177,-493 13,-676 190,-183 493,-177 676,13l5043 5238zm-31739 -33138c183,190 177,493 -13,676 -190,183 -493,177 -676,-13l-4796 -4981c-183,-190 -177,-493 13,-676 190,-183 493,-177 676,13l4796 4981zm-3492 8859c139,-90 324,-51 413,88 90,139 51,324 -88,413 -196,127 -324,326 -370,548 -47,227 -11,477 121,703 84,142 35,325 -107,409 -142,84 -325,35 -409,-107 -210,-359 -268,-761 -190,-1125 78,-374 295,-710 630,-927l0 -1zm32666 9206c-83,-143 -32,-326 111,-409 143,-83 326,-32 409,111 198,346 237,744 134,1113 -100,361 -335,691 -685,914 -140,88 -325,47 -413,-92 -88,-140 -47,-325 92,-413 221,-140 368,-346 429,-568 61,-218 39,-454 -78,-656zm9544 2847c254,70 404,334 334,588 -70,254 -334,404 -588,334l-7010 -1935c-254,-70 -404,-334 -334,-588 70,-254 334,-404 588,-334l7010 1935zm-44264 -12090c254,70 404,334 334,588 -70,254 -334,404 -588,334l-6666 -1840c-254,-70 -404,-334 -334,-588 70,-254 334,-404 588,-334l6666 1840zm24256 -10368c80,143 30,325 -113,406 -143,80 -325,30 -406,-113 -115,-204 -306,-342 -524,-402 -222,-61 -475,-40 -709,79 -148,75 -327,15 -402,-132 -75,-148 -15,-327 132,-402 370,-187 774,-219 1134,-121 369,100 691,337 887,686l1 -1zm992 -9616c69,-254 331,-404 586,-335 254,69 404,331 335,586l-1923 7013c-69,254 -331,404 -586,335 -254,-69 -404,-331 -335,-586l1923 -7013zm-2846 42691c-148,-73 -209,-252 -135,-400 73,-148 252,-209 400,-135 209,104 445,111 661,37 218,-75 415,-235 541,-462 79,-144 261,-198 406,-118 144,79 198,261 118,406 -202,364 -518,619 -871,741 -361,124 -761,110 -1119,-67l0 -2zm-8794 -32781c-80,143 -263,194 -406,113 -143,-80 -194,-263 -113,-406 196,-348 519,-585 887,-686 361,-98 765,-66 1134,121 148,75 207,254 132,402 -75,148 -254,207 -402,132 -233,-118 -486,-140 -709,-79 -219,59 -410,199 -524,402l1 1zm9813 34563c-69,-254 80,-516 335,-586 254,-69 516,80 586,335l1828 6669c69,254 -80,516 -335,586 -254,69 -516,-80 -586,-335l-1828 -6669zm-25761 -8548c-127,29 -254,-51 -282,-179 -29,-127 51,-254 179,-282l2093 -476c127,-29 254,51 282,179 29,127 -51,254 -179,282l-2093 476zm5523 -6997c-2,7 -5,13 -8,20l-12 28c-88,205 -176,412 -267,619 -219,527 -411,1045 -546,1563 -187,715 -271,1442 -180,2212 25,208 -124,396 -332,420 -208,25 -396,-124 -420,-332 -62,-526 -52,-1032 11,-1528 -442,321 -754,744 -1063,1164 -136,185 -272,370 -409,537 -42,52 -96,90 -154,112 -937,430 -1858,543 -2780,657 -169,21 -338,42 -502,64 102,551 136,1109 171,1688 73,1195 152,2489 903,3971l1 2 2543 -1635c10,-7 21,-14 32,-20l863 -495 0 0c91,-52 202,-66 309,-30 419,142 836,336 1247,575 1641,-1720 2390,-4176 3157,-6692 672,-2204 1357,-4453 2667,-6360 357,-520 745,-1015 1132,-1509 712,-909 1418,-1810 1912,-2867 15,-32 33,-60 55,-86l0 0c258,-300 503,-568 744,-833 478,-524 946,-1038 1386,-1645 71,-98 142,-231 216,-369 24,-45 49,-91 74,-137 2,-4 4,-8 6,-12l-4 1c-1,1 -2,2 -3,0 -3,-24 -11,-49 -25,-71 -15,-24 -38,-46 -71,-64 -64,-35 -161,-52 -301,-36 -170,20 -268,124 -409,273 -18,19 -37,39 -64,67 -547,569 -1204,1101 -1863,1635 -318,257 -636,514 -939,774 -597,1003 -1755,1816 -2778,2535 -281,197 -552,387 -766,548 -1890,1416 -2675,3254 -3509,5206l-21 50zm6020 16528c-76,106 -224,130 -329,54 -106,-76 -130,-224 -54,-329l1403 -1955c76,-106 224,-130 329,-54 106,76 130,224 54,329l-1403 1955zm-87 2324c456,-545 885,-1238 1308,-1920 710,-1145 1402,-2261 2251,-2757l0 0 9 -5c1423,-786 2962,-1780 4309,-3017 1331,-1223 2476,-2684 3134,-4417 7,-21 16,-41 27,-61 281,-510 609,-962 934,-1409 404,-556 802,-1103 1059,-1701 4,-10 7,-20 12,-30 422,-935 920,-1862 1418,-2788 976,-1814 1952,-3627 2307,-5453l0 0c3,-18 8,-36 14,-53 178,-511 151,-838 25,-1052 -66,-113 -164,-202 -276,-274 -344,658 -635,1376 -924,2088 -394,972 -784,1935 -1326,2785 -647,1307 -1440,2307 -2263,3343 -269,339 -541,681 -767,980 -126,166 -362,198 -528,73 -166,-126 -198,-362 -73,-528 288,-380 534,-689 776,-995 800,-1008 1572,-1981 2180,-3209 9,-21 19,-41 31,-60 506,-791 885,-1727 1269,-2673 317,-783 637,-1573 1047,-2324l4 -9 32 -62c4,-16 9,-32 15,-49 16,-43 40,-81 69,-114 237,-462 462,-915 669,-1382 227,-515 429,-1045 595,-1620 -33,-426 -153,-633 -302,-725 -107,-66 -248,-85 -388,-84l-1812 3205c-4,7 -8,14 -12,20l1 0 -3159 4812c-11,17 -23,33 -36,47l-2322 2977c-128,164 -366,193 -530,65 -164,-128 -193,-366 -65,-530l2322 -2977 3156 -4808 1877 -3320c106,-412 118,-720 67,-945 -40,-178 -121,-297 -220,-371 -101,-75 -227,-109 -352,-114 -115,-4 -226,14 -315,49 -52,213 -146,443 -293,691 -4,6 -8,12 -12,19 -991,1658 -2230,3058 -3469,4458 -609,689 -1219,1377 -1803,2104 -9,11 -19,22 -29,32l-2488 2556c-145,150 -385,153 -534,7 -150,-145 -153,-385 -7,-534l2481 -2548c580,-721 1198,-1419 1816,-2118 1215,-1373 2430,-2746 3386,-4347 3,-5 5,-10 8,-15 186,-314 250,-563 233,-756 -12,-133 -66,-237 -143,-316 -90,-90 -210,-153 -340,-189 -178,-49 -363,-48 -503,2 -692,486 -1176,1098 -1660,1709 -263,332 -525,664 -814,974l0 0c-23,24 -49,46 -78,64 -514,319 -2488,2096 -4462,3874l-271 244c-280,291 -585,563 -885,829l-23 21c-35,31 -75,55 -116,71 -524,470 -1033,923 -1506,1338 -157,137 -395,121 -533,-36 -137,-157 -121,-395 36,-533 686,-601 1565,-1392 2466,-2203 602,-631 1059,-1356 967,-2334 -4,-32 -4,-64 1,-97 77,-568 28,-950 -117,-1184 -119,-193 -332,-288 -610,-311 -144,-12 -295,217 -436,471 -5,9 -9,19 -14,28 -4,7 -8,14 -12,21 -23,43 -46,86 -69,129 -90,168 -176,329 -269,458 -463,639 -946,1169 -1439,1710 -235,258 -472,518 -698,779 -528,1113 -1250,2034 -1977,2962 -374,477 -750,957 -1103,1471 -1247,1817 -1915,4007 -2569,6153 -779,2555 -1540,5050 -3233,6888 1025,725 2005,1724 2885,2911 1247,1682 2298,3745 2994,5932zm4823 -29769l5 -10c5,-10 -5,6 -9,10l4 -1zm2553 198c89,323 108,723 46,1212 26,305 14,587 -30,850 1426,-1278 2672,-2373 3158,-2695 270,-293 508,-593 746,-894 283,-357 565,-714 889,-1053 -16,-43 -25,-89 -24,-137 2,-125 -30,-221 -81,-281 -19,-23 -41,-40 -64,-52 -22,-11 -45,-17 -65,-17 -46,-1 -100,20 -155,65 -518,469 -1070,857 -1637,1192 -564,333 -1140,614 -1713,871 -48,22 -99,33 -149,33 -27,13 -188,191 -353,374 -183,202 -369,408 -568,533l-1 1z"/></g><text x="0" y="60015" fill="#000000" font-size="5px" font-weight="bold" font-family="'Helvetica Neue', Helvetica, Arial-Unicode, Arial, Sans-serif">Created by Olena Panasovska</text><text x="0" y="60020" fill="#000000" font-size="5px" font-weight="bold" font-family="'Helvetica Neue', Helvetica, Arial-Unicode, Arial, Sans-serif">from the Noun Project</text></svg>